<svg width="76" height="76" viewBox="0 0 76 76" fill="none" xmlns="http://www.w3.org/2000/svg">
<g clip-path="url(#clip0_1_76)">
<path d="M38.0002 30.541C33.8598 30.541 30.5039 33.8975 30.5039 38.0373C30.5039 42.1777 33.8598 45.5335 38.0002 45.5335C42.1399 45.5335 45.4964 42.1777 45.4964 38.0373C45.4921 33.8993 42.1381 30.5453 38.0002 30.541ZM38.0002 43.0348C35.2397 43.0348 33.0027 40.7977 33.0027 38.0373C33.0027 35.2774 35.2397 33.0398 38.0002 33.0398C40.76 33.0398 42.9977 35.2774 42.9977 38.0373C42.9977 40.7977 40.76 43.0348 38.0002 43.0348Z" fill="#00B4EE"/>
<path d="M14.262 8.05225C10.8116 8.05225 8.01517 10.8493 8.01517 14.2991C8.01517 17.7496 10.8116 20.546 14.262 20.546C17.7119 20.546 20.5089 17.7496 20.5089 14.2991C20.5047 10.8511 17.71 8.05652 14.262 8.05225ZM14.262 18.0473C12.1915 18.0473 10.5139 16.3696 10.5139 14.2991C10.5139 12.2292 12.1915 10.551 14.262 10.551C16.3319 10.551 18.0102 12.2292 18.0102 14.2991C18.0102 16.3696 16.3319 18.0473 14.262 18.0473Z" fill="#00B4EE"/>
<path d="M75.4815 16.1536V12.4452C75.479 11.5161 74.7878 10.7322 73.8661 10.615L71.382 10.3015L72.9187 8.32613C73.4884 7.59102 73.4238 6.54723 72.7674 5.88838L70.1442 3.26457C69.4853 2.61121 68.4434 2.54776 67.7101 3.11633L65.736 4.65425L65.4249 2.17136C65.3083 1.24836 64.5232 0.55596 63.5923 0.55596H59.8838C58.9541 0.55718 58.1702 1.24897 58.0537 2.17136L57.7401 4.65425L55.766 3.11877C55.0315 2.54898 53.9877 2.61365 53.3288 3.27006L50.705 5.89326C50.0486 6.55272 49.984 7.5959 50.5537 8.33101L52.0941 10.3015L49.6106 10.6114C48.687 10.7285 47.9952 11.5142 47.9952 12.4452V16.1536C47.997 17.0827 48.6882 17.866 49.6106 17.9838L52.0941 18.2937L50.5574 20.269C49.9876 21.0035 50.0523 22.0473 50.7087 22.7062L51.1369 23.1338L48.6046 25.6685L47.9098 24.9725C47.2089 24.2752 46.098 24.2063 45.3165 24.8126L42.5999 26.9307L42.1729 23.5157C42.0497 22.5335 41.2151 21.7966 40.225 21.7954H39.2496V10.3741C41.6861 9.74449 43.2747 7.40191 42.9574 4.90498C42.6408 2.40867 40.5166 0.537659 38.0002 0.537659C35.4831 0.537659 33.3596 2.40867 33.0423 4.90498C32.7251 7.40191 34.3137 9.74449 36.7508 10.3741V21.7954H35.7747C34.7852 21.7966 33.9507 22.5335 33.8269 23.5157L33.3998 26.9307L30.6827 24.8163C29.8994 24.213 28.7903 24.2825 28.0888 24.9792L27.3988 25.6698L24.8628 23.1338L25.2911 22.7062C25.9475 22.0473 26.0122 21.0035 25.4424 20.269L23.9057 18.2973L26.3922 17.9874C27.3146 17.8685 28.0052 17.0833 28.0052 16.1536V12.4452C28.0034 11.5167 27.3128 10.7334 26.3922 10.615L23.9057 10.3015L25.4424 8.32613C26.0122 7.59102 25.9475 6.54723 25.2911 5.88838L22.6679 3.26457C22.009 2.61121 20.9671 2.54776 20.2338 3.11633L18.2597 4.65425L17.9486 2.17136C17.832 1.24836 17.0469 0.55596 16.116 0.55596H12.4075C11.4778 0.55718 10.6939 1.24897 10.5774 2.17136L10.2638 4.65425L8.29213 3.11877C7.55763 2.54898 6.51384 2.61365 5.85499 3.27006L3.23118 5.89326C2.57477 6.55272 2.5101 7.5959 3.07989 8.33101L4.61782 10.3015L2.13188 10.6114C1.20948 10.7297 0.518911 11.5155 0.518911 12.4452V16.1536C0.520742 17.0827 1.21192 17.866 2.13432 17.9838L4.61782 18.2937L3.08111 20.269C2.51132 21.0035 2.57599 22.0473 3.2324 22.7062L5.85621 25.33C6.51506 25.9833 7.55641 26.0468 8.28969 25.4788L10.2638 23.9445L10.5749 26.4268C10.6914 27.3504 11.4772 28.0428 12.4075 28.0422H16.116C17.0457 28.0416 17.8296 27.3492 17.9461 26.4268L18.2597 23.9445L20.2338 25.48C20.9689 26.0498 22.0127 25.9852 22.6715 25.3287L23.0986 24.9005L25.6352 27.4365L24.944 28.1264C24.2455 28.828 24.1765 29.9389 24.7829 30.7209L26.8955 33.4363L23.4786 33.8633C22.4965 33.9884 21.7601 34.8229 21.7583 35.8124V36.7879H10.3364C9.70744 34.3513 7.36425 32.7628 4.86794 33.08C2.37101 33.3966 0.5 35.5208 0.5 38.0372C0.5 40.5543 2.37101 42.6779 4.86794 42.9951C7.36425 43.3123 9.70744 41.7238 10.3364 39.2866H21.7583V40.2627C21.7662 40.5903 21.8584 40.9106 22.0267 41.1924C11.005 47.7406 5.11195 60.3662 7.17025 73.0198H1.76829V75.5185H74.2321V73.0198H68.8295C70.8884 60.3662 64.996 47.7413 53.9743 41.1924C54.1414 40.9106 54.2335 40.5903 54.2421 40.2627V39.2866H65.664C66.2929 41.7238 68.6355 43.3123 71.1325 42.9951C73.6288 42.6779 75.4998 40.5543 75.4998 38.0372C75.4998 35.5208 73.6288 33.3966 71.1325 33.08C68.6355 32.7628 66.2929 34.3513 65.664 36.7879H54.2421V35.8124C54.2396 34.8235 53.5045 33.9896 52.5242 33.8633L49.1079 33.4363L51.2224 30.7197C51.8275 29.937 51.758 28.8274 51.0595 28.1264L50.3726 27.4401C51.2211 26.5879 52.0654 25.7417 52.9049 24.9017L53.3349 25.3312C53.9938 25.9845 55.0351 26.048 55.7684 25.48L57.7401 23.9445L58.0512 26.4268C58.1677 27.3504 58.9535 28.0428 59.8838 28.0422H63.5923C64.522 28.0416 65.3059 27.3492 65.4224 26.4268L65.736 23.9445L67.7101 25.48C68.4452 26.0498 69.489 25.9852 70.1478 25.3287L72.7716 22.7049C73.4274 22.0461 73.4921 21.0023 72.9223 20.2678L71.382 18.2973L73.8685 17.9874C74.7909 17.8685 75.4815 17.0833 75.4815 16.1536ZM35.5014 5.55346C35.5014 4.17354 36.6203 3.05471 38.0002 3.05471C39.3801 3.05471 40.4989 4.17354 40.4989 5.55346C40.4989 6.934 39.3801 8.05222 38.0002 8.05222C36.6203 8.05222 35.5014 6.934 35.5014 5.55346ZM21.3111 23.1539L18.9521 21.3195C18.5745 21.0261 18.0626 20.9736 17.6338 21.1847C17.344 21.3274 17.0457 21.4531 16.7407 21.5593C16.2905 21.7148 15.9677 22.1126 15.9086 22.5854L15.534 25.5459H12.9852L12.61 22.5854C12.5509 22.1126 12.2282 21.7148 11.7779 21.5593C11.4729 21.4531 11.1746 21.3274 10.8848 21.1847C10.456 20.9736 9.94414 21.0261 9.56652 21.3195L7.21296 23.1539L5.40905 21.3482L7.24163 18.991C7.53567 18.6133 7.58814 18.1021 7.37767 17.6727C7.23431 17.3829 7.10925 17.0846 7.0031 16.7795C6.84815 16.3275 6.44979 16.0042 5.97578 15.945L3.01766 15.5759V13.0223L5.97944 12.6477C6.45345 12.5885 6.85181 12.2646 7.00676 11.8132C7.11291 11.5075 7.23797 11.2092 7.38133 10.92C7.5918 10.4906 7.53872 9.97996 7.24529 9.60295L5.40905 7.25061L7.21296 5.44488L9.5714 7.27929C9.94902 7.57272 10.4608 7.62518 10.8897 7.41411C11.1783 7.27014 11.4754 7.14508 11.7792 7.03893C12.2312 6.88459 12.5557 6.48623 12.6149 6.01222L12.9901 3.05105H15.5438L15.9183 6.01222C15.9781 6.48623 16.302 6.88459 16.7541 7.03893C17.0585 7.14508 17.3556 7.27014 17.6441 7.41411C18.073 7.62518 18.5848 7.57272 18.9618 7.27929L21.3209 5.44488L23.1248 7.25061L21.2819 9.60783C20.9884 9.98484 20.9354 10.4967 21.1458 10.9261C21.2898 11.2153 21.4148 11.5142 21.521 11.8193C21.6753 12.2707 22.0743 12.5946 22.5477 12.6538L25.5101 13.029V15.5826L22.5477 15.9572C22.0743 16.0164 21.6753 16.3403 21.521 16.7917C21.4148 17.0974 21.2898 17.3957 21.1458 17.6849C20.936 18.1143 20.989 18.6249 21.2819 19.0019L23.115 21.3598L21.3111 23.1539ZM5.51642 40.536C4.13649 40.536 3.01766 39.4178 3.01766 38.0372C3.01766 36.6573 4.13649 35.5385 5.51642 35.5385C6.89634 35.5385 8.01517 36.6573 8.01517 38.0372C8.01517 39.4178 6.89634 40.536 5.51642 40.536ZM70.484 35.5385C71.8639 35.5385 72.9827 36.6573 72.9827 38.0372C72.9827 39.4178 71.8639 40.536 70.484 40.536C69.104 40.536 67.9852 39.4178 67.9852 38.0372C67.9852 36.6573 69.104 35.5385 70.484 35.5385ZM66.7358 68.0223C66.734 69.6981 66.5839 71.3708 66.2887 73.0198H9.71171C7.48199 60.5541 13.7051 48.1036 25.0141 42.404L26.8882 42.6388L24.7744 45.3554C24.1692 46.1374 24.2388 47.2477 24.9366 47.9487L28.0851 51.0971C28.786 51.7956 29.8969 51.8639 30.6784 51.257L33.395 49.1444L33.822 52.5588C33.9458 53.5428 34.7828 54.281 35.7747 54.2791H40.225C41.2151 54.2785 42.0497 53.541 42.1729 52.5588L42.5999 49.1444L45.3177 51.2582C46.1004 51.8633 47.2101 51.7938 47.911 51.0959L51.0582 47.9487C51.7568 47.2471 51.8257 46.1362 51.2199 45.3535L49.1067 42.6388L50.9875 42.404C60.6732 47.263 66.7731 57.1866 66.7358 68.0223ZM51.7433 36.2882V39.7869L47.9702 40.2578C47.4962 40.317 47.0972 40.6415 46.9429 41.0936C46.8142 41.4688 46.6616 41.836 46.4859 42.1917C46.2755 42.6211 46.3279 43.1324 46.622 43.51L48.9572 46.5084L46.478 48.9882L43.4796 46.6505C43.102 46.3564 42.5896 46.3046 42.1607 46.5157C41.8057 46.692 41.4396 46.8445 41.0645 46.9732C40.6124 47.1275 40.2885 47.5259 40.2287 47.9999L39.7492 51.7804H36.2506L35.7796 48.0072C35.7204 47.5332 35.3959 47.1349 34.9439 46.9805C34.5693 46.8524 34.2033 46.6993 33.8482 46.523C33.4187 46.3119 32.9069 46.3644 32.5287 46.6584L29.5303 48.9955L27.0431 46.5157L29.3778 43.5173C29.6718 43.1403 29.7249 42.6285 29.5144 42.199C29.3381 41.8433 29.1856 41.4767 29.0569 41.1009C28.9026 40.6488 28.5042 40.3243 28.0302 40.2651L24.2571 39.7869V36.2882L28.0302 35.8173C28.5042 35.7581 28.9026 35.4336 29.0569 34.9815C29.1856 34.6057 29.3381 34.2391 29.5144 33.8834C29.7249 33.454 29.6718 32.9421 29.3778 32.5651L27.0431 29.5667L29.5218 27.0869L32.5201 29.424C32.8978 29.718 33.4102 29.7705 33.8397 29.5594C34.1947 29.3831 34.5607 29.23 34.9353 29.1019C35.3874 28.9475 35.7119 28.5492 35.7711 28.0752L36.2506 24.2941H39.7492L40.2202 28.0672C40.2793 28.5412 40.6039 28.9402 41.0559 29.0946C41.4311 29.2227 41.7971 29.3758 42.1516 29.5515C42.581 29.7632 43.0935 29.7107 43.4711 29.4167L46.4695 27.079L48.9481 29.5594L46.6134 32.5578C46.3194 32.9348 46.2663 33.4466 46.4768 33.8755C46.6531 34.2318 46.8056 34.5984 46.9343 34.9742C47.0887 35.4262 47.487 35.7502 47.961 35.81L51.7433 36.2882ZM72.9827 15.5759L70.0203 15.9511C69.5463 16.0103 69.148 16.3342 68.993 16.7856C68.8875 17.0907 68.7618 17.3896 68.6184 17.6788C68.4086 18.1076 68.4611 18.6188 68.7545 18.9958L70.5877 21.3531L68.7832 23.1588L66.4247 21.3244C66.0471 21.031 65.5353 20.9785 65.1064 21.1896C64.8166 21.3329 64.5183 21.458 64.2133 21.5641C63.7631 21.7197 63.4404 22.1175 63.3812 22.5902L63.006 25.5514H60.4615L60.0863 22.5902C60.0272 22.1175 59.7044 21.7197 59.2542 21.5641C58.9492 21.4586 58.6515 21.3335 58.3623 21.1896C57.9329 20.9785 57.4204 21.0304 57.0428 21.3244L54.6844 23.1588L52.8798 21.3531L54.713 18.9958C55.0101 18.6182 55.065 18.104 54.854 17.6727C54.7106 17.3829 54.5855 17.0846 54.4794 16.7795C54.3244 16.3275 53.9261 16.0042 53.4521 15.945L50.494 15.5759V13.0223L53.4557 12.6477C53.9297 12.5885 54.3281 12.2646 54.4831 11.8132C54.5892 11.5075 54.7143 11.2092 54.8576 10.92C55.0681 10.4906 55.015 9.97996 54.7216 9.60295L52.8853 7.25061L54.6892 5.44488L57.0477 7.27929C57.4253 7.57272 57.9371 7.62518 58.366 7.41411C58.6546 7.27014 58.9516 7.14508 59.2554 7.03893C59.7075 6.88459 60.032 6.48623 60.0912 6.01222L60.4664 3.05105H63.02L63.3946 6.01222C63.4544 6.48623 63.7783 6.88459 64.2304 7.03893C64.5342 7.14508 64.8313 7.27014 65.1192 7.41411C65.5481 7.62518 66.0605 7.57272 66.4381 7.27929L68.7972 5.44488L70.6011 7.25061L68.7581 9.60783C68.4647 9.98484 68.4116 10.4967 68.6221 10.9261C68.7661 11.2153 68.8911 11.5142 68.9973 11.8193C69.1516 12.2707 69.5506 12.5946 70.024 12.6538L72.9864 13.029L72.9827 15.5759Z" fill="#00B4EE"/>
<path d="M61.7384 8.05225C58.2879 8.05225 55.4915 10.8493 55.4915 14.2991C55.4915 17.7496 58.2879 20.546 61.7384 20.546C65.1882 20.546 67.9852 17.7496 67.9852 14.2991C67.981 10.8511 65.1863 8.05652 61.7384 8.05225ZM61.7384 18.0473C59.6679 18.0473 57.9902 16.3696 57.9902 14.2991C57.9902 12.2292 59.6679 10.551 61.7384 10.551C63.8082 10.551 65.4865 12.2292 65.4865 14.2991C65.4865 16.3696 63.8082 18.0473 61.7384 18.0473Z" fill="#00B4EE"/>
<path d="M18.0102 68.0222H29.2546V70.521H18.0102V68.0222Z" fill="#00B4EE"/>
<path d="M22.9137 60.5261C19.9904 60.8134 17.3489 62.394 15.7152 64.8354L17.8064 66.2099C19.0198 64.4237 20.9561 63.2597 23.1022 63.0248C25.6431 62.8668 28.0723 64.0869 29.4632 66.2184L31.5447 64.8367C29.6584 61.945 26.3587 60.2967 22.9137 60.5261Z" fill="#00B4EE"/>
<path d="M46.7458 68.0222H57.9902V70.521H46.7458V68.0222Z" fill="#00B4EE"/>
<path d="M44.4557 64.8329L46.5372 66.2146C47.9287 64.0837 50.3585 62.8655 52.8988 63.0247C55.0455 63.2602 56.9806 64.4254 58.194 66.2122L60.2852 64.8378C58.6521 62.3957 56.0112 60.8139 53.0873 60.5259C49.6435 60.2966 46.3432 61.9431 44.4557 64.8329Z" fill="#00B4EE"/>
</g>
<defs>
<clipPath id="clip0_1_76">
<rect width="75" height="75" fill="white" transform="translate(0.5 0.500031)"/>
</clipPath>
</defs>
</svg>
