<svg width="76" height="76" viewBox="0 0 76 76" fill="none" xmlns="http://www.w3.org/2000/svg">
<g clip-path="url(#clip0_1_29)">
<path d="M63.4149 48.7838C65.5923 47.1015 66.8563 44.4968 66.8305 41.7459C66.9881 37.1742 63.4227 33.3348 58.8522 33.1538C57.0236 33.1592 55.2586 33.8257 53.8825 35.0303C51.9155 36.7822 50.8163 39.309 50.8751 41.9419C50.9338 44.5753 52.145 47.05 54.1882 48.7125C54.2049 48.7263 54.2247 48.7347 54.2421 48.7479C50.8637 50.1551 48.0504 52.6471 46.2452 55.8302C45.1334 54.9318 43.8922 54.2066 42.5629 53.6798C43.1952 53.2021 43.7562 52.6363 44.2273 51.9999C45.3666 50.4518 45.9755 48.5771 45.9641 46.6556C45.9587 42.1462 42.482 38.4022 37.9858 38.0636C33.9715 38.1667 30.6356 41.1879 30.1364 45.1729C30.0494 45.6619 30.0063 46.1582 30.0075 46.6556C29.9817 49.3993 31.2397 51.9981 33.4075 53.6798C32.0788 54.2072 30.837 54.9318 29.7252 55.8302C27.9877 52.7802 25.3309 50.3565 22.1335 48.9067C24.4091 47.2346 25.7408 44.5693 25.7115 41.7459C25.8691 37.1742 22.3037 33.3348 17.7332 33.1538C13.1627 33.3348 9.59722 37.1742 9.75485 41.7459C9.73267 44.4147 10.9223 46.9493 12.9894 48.6376C6.22118 51.0535 1.22455 59.1421 1.22455 68.7494C1.22455 69.4272 1.77414 69.9768 2.45198 69.9768H22.4098C22.2348 71.1965 22.1425 72.4269 22.1335 73.6591C22.1335 74.337 22.6831 74.8866 23.3609 74.8866H52.6107C53.2886 74.8866 53.8382 74.337 53.8382 73.6591C53.8298 72.4269 53.7375 71.1965 53.5619 69.9768H73.5202C74.1981 69.9768 74.7477 69.4272 74.7477 68.7494C74.7477 59.3459 69.9656 51.3819 63.4149 48.7838ZM53.3287 41.7459C53.3 39.8891 54.0881 38.1139 55.4839 36.8901C56.4159 36.0708 57.6116 35.6153 58.8522 35.6087C62.0664 35.7903 64.5326 38.5299 64.3756 41.7459C64.5326 44.9613 62.0664 47.7014 58.8522 47.883C57.7062 47.883 56.5945 47.4935 55.6991 46.7779C54.1768 45.5546 53.3024 43.6985 53.3287 41.7459ZM32.4624 46.6556C32.4618 46.2948 32.4935 45.9346 32.5583 45.5804C32.8669 42.7827 35.1737 40.6311 37.9858 40.5184C40.8075 40.6353 43.1185 42.8001 43.4188 45.6086C43.4805 45.9538 43.5111 46.3044 43.5093 46.6556C43.5194 48.0526 43.0783 49.4161 42.2513 50.5429C41.2731 51.9339 39.6867 52.7712 37.9858 52.7928C34.7716 52.6112 32.3059 49.871 32.4624 46.6556ZM17.7332 35.6087C20.9474 35.7903 23.4136 38.5299 23.2566 41.7459C23.4136 44.9613 20.9474 47.7014 17.7332 47.883C14.5189 47.7014 12.0533 44.9613 12.2097 41.7459C12.0533 38.5299 14.5189 35.7903 17.7332 35.6087ZM22.8431 67.522H3.70878C4.17386 57.9404 10.0371 50.3379 17.1812 50.3379C21.3813 50.3379 25.3375 53.0259 27.8978 57.5659C25.3884 60.3971 23.648 63.8253 22.8431 67.522ZM24.6177 72.4317C24.6722 71.272 24.8101 70.1183 25.0288 68.9789C25.6881 65.0851 27.5095 61.4825 30.2532 58.6423C30.2856 58.6111 30.3156 58.5781 30.3437 58.5428C32.3629 56.4883 35.106 55.3052 37.9858 55.2476C40.8656 55.3046 43.6087 56.4865 45.6279 58.5404C45.6567 58.5763 45.6878 58.6105 45.7214 58.6423C48.4651 61.4837 50.2853 65.0881 50.944 68.9825C51.1621 70.1207 51.2994 71.2738 51.3539 72.4317H24.6177ZM53.1285 67.522C52.3248 63.8253 50.5844 60.3977 48.0744 57.5671C50.6347 53.0259 54.5909 50.3379 58.791 50.3379C65.9345 50.3379 71.8019 57.9404 72.2634 67.522H53.1285Z" fill="#00B4EE"/>
<path d="M23.7193 21.2966L27.0738 21.7161L24.9971 24.3861C24.4026 25.1551 24.4709 26.2453 25.1565 26.9339L28.2485 30.0259C28.9383 30.7115 30.0291 30.7792 30.798 30.1841L33.4651 28.1086L33.8852 31.4661C34.0093 32.4292 34.8286 33.1514 35.8001 33.1538H40.1722C41.1437 33.1514 41.9636 32.4286 42.0871 31.4649L42.5066 28.1086L45.1748 30.1859C45.9438 30.781 47.0352 30.7127 47.7232 30.0259L50.8163 26.9327C51.5014 26.2435 51.5685 25.1533 50.9734 24.3849L48.8979 21.7161L52.2523 21.2966C53.2173 21.1755 53.9413 20.3556 53.9425 19.3829V15.0108C53.9407 14.0387 53.2173 13.2188 52.2523 13.0971L48.8979 12.6776L50.9746 10.0075C51.5691 9.2392 51.5008 8.14842 50.8151 7.45978L47.7232 4.36783C47.034 3.68099 45.9426 3.61327 45.1736 4.2096L42.5066 6.28509L42.0871 2.92823C41.963 1.9645 41.1437 1.24231 40.1722 1.24051H35.8001C34.828 1.24231 34.0087 1.9651 33.8852 2.92943L33.4651 6.28509L30.7968 4.2084C30.0279 3.61327 28.9371 3.68159 28.2485 4.36783L25.1553 7.46098C24.4709 8.15021 24.4032 9.241 24.9983 10.0093L27.0738 12.6776L23.7193 13.0971C22.7544 13.2182 22.0304 14.0387 22.0292 15.0108V19.3829C22.0304 20.3556 22.7544 21.1755 23.7193 21.2966ZM24.4841 15.4783L28.1909 15.0156C28.6566 14.9574 29.0486 14.6386 29.2002 14.1945C29.3261 13.8265 29.4759 13.4669 29.6491 13.1181C29.8571 12.6962 29.8055 12.1927 29.5167 11.8217L27.22 8.87601L29.6563 6.43253L32.6026 8.72617C32.973 9.01505 33.4759 9.06719 33.8972 8.86042C34.2472 8.68722 34.6074 8.53738 34.976 8.41092C35.4201 8.25929 35.7389 7.86733 35.7977 7.40225L36.2675 3.69538H39.7041L40.1668 7.40225C40.2255 7.86733 40.5444 8.25929 40.9885 8.41092C41.3571 8.53738 41.7173 8.68722 42.0673 8.86042C42.4898 9.06899 42.9945 9.01745 43.366 8.72737L46.3118 6.43373L48.7481 8.86881L46.4514 11.8145C46.1625 12.1855 46.1116 12.689 46.319 13.1109C46.4922 13.4591 46.642 13.8187 46.7685 14.1873C46.9201 14.6314 47.3114 14.9502 47.7771 15.0084L51.4876 15.4783V18.9154L47.7807 19.3781C47.315 19.4362 46.9237 19.7551 46.7721 20.1992C46.6456 20.5672 46.4958 20.9268 46.3226 21.2756C46.1152 21.6975 46.1667 22.201 46.455 22.572L48.7516 25.5177L46.3154 27.9618L43.3696 25.6675C42.9993 25.3786 42.4964 25.3271 42.0745 25.5339C41.7251 25.7065 41.3643 25.8563 40.9957 25.9828C40.5516 26.1344 40.2327 26.5264 40.1746 26.992L39.7041 30.6989H36.2675L35.8049 26.992C35.7467 26.5264 35.4279 26.1344 34.9838 25.9828C34.6146 25.8563 34.2544 25.7065 33.905 25.5339C33.4831 25.3271 32.9802 25.3786 32.6098 25.6675L29.6641 27.9618L27.2272 25.5261L29.5239 22.5803C29.8127 22.2094 29.8643 21.7059 29.6563 21.284C29.4837 20.9358 29.3333 20.5762 29.2074 20.2076C29.0558 19.7635 28.6638 19.4452 28.1981 19.3865L24.4841 18.9154V15.4783Z" fill="#00B4EE"/>
<path d="M37.9858 24.5618C42.0535 24.5618 45.3504 21.2643 45.3504 17.1972C45.3504 13.1295 42.0535 9.83261 37.9858 9.83261C33.9187 9.83261 30.6212 13.1295 30.6212 17.1972C30.6254 21.2625 33.9205 24.5576 37.9858 24.5618ZM37.9858 12.2875C40.6978 12.2875 42.8955 14.4852 42.8955 17.1972C42.8955 19.9086 40.6978 22.1069 37.9858 22.1069C35.2744 22.1069 33.0761 19.9086 33.0761 17.1972C33.0761 14.4852 35.2744 12.2875 37.9858 12.2875Z" fill="#00B4EE"/>
<path d="M8.63833 35.4451C8.82233 35.4451 9.00452 35.4031 9.17054 35.3222C9.4774 35.1754 9.71114 34.9093 9.81782 34.5862C9.99282 34.0349 9.79564 33.6789 9.40248 32.968C8.52146 31.3726 5.84304 26.524 7.46843 22.5684C8.3962 20.3161 14.6155 18.4978 17.9568 17.5208C18.7227 17.2979 19.4125 17.0965 19.9771 16.9149C20.4853 16.7507 20.8294 16.2766 20.8276 15.7426L20.8018 6.15031C20.7778 5.77813 20.5914 5.43591 20.2924 5.21355C19.9849 4.98221 19.5935 4.89291 19.216 4.96783C12.2355 6.37866 3.92338 8.65013 1.59977 13.6827C-2.42475 22.3976 5.75854 33.1365 7.53556 34.8889C7.81665 35.2113 8.21221 35.4109 8.63833 35.4451ZM5.20116 21.6257C4.69892 22.8723 4.46158 24.21 4.50414 25.5531C3.05675 22.1609 2.23686 18.1669 3.83408 14.7124C5.69201 10.6807 14.0215 8.57521 18.3541 7.65104L18.3751 14.828C18.0317 14.9311 17.6619 15.039 17.2705 15.1523C11.6332 16.804 6.47055 18.5385 5.19756 21.6257H5.20116Z" fill="#00B4EE"/>
<path d="M56.0204 16.9071C56.5856 17.0887 57.2766 17.2901 58.0425 17.5136C61.3832 18.4953 67.6025 20.3083 68.5308 22.5606C70.1604 26.5156 67.4772 31.3654 66.5974 32.9584C66.2036 33.6716 66.0059 34.0288 66.1827 34.5796C66.2881 34.902 66.5195 35.1681 66.8245 35.3162C66.99 35.3971 67.171 35.439 67.355 35.439C67.7805 35.4115 68.1784 35.2155 68.4595 34.8943C70.2389 33.1424 78.4288 22.4048 74.3977 13.6851C72.0741 8.64768 63.762 6.38101 56.7815 4.97018L56.6677 4.9474C56.3069 4.87369 55.9323 4.96538 55.647 5.19792C55.3617 5.43047 55.1957 5.77808 55.1945 6.14607L55.1699 15.7348C55.1681 16.2694 55.5121 16.7435 56.0204 16.9071ZM57.6482 7.65459C61.8765 8.55359 70.2983 10.6608 72.17 14.7189C73.7654 18.1717 72.9443 22.1644 71.4987 25.5584C71.5407 24.2147 71.3028 22.877 70.7999 21.6304C69.5275 18.5433 64.3649 16.8088 58.7294 15.1618C58.3392 15.0492 57.97 14.9407 57.6248 14.8376L57.6482 7.65459Z" fill="#00B4EE"/>
</g>
<defs>
<clipPath id="clip0_1_29">
<rect width="75" height="75" fill="white" transform="translate(0.5 0.5)"/>
</clipPath>
</defs>
</svg>
