<svg width="76" height="76" viewBox="0 0 76 76" fill="none" xmlns="http://www.w3.org/2000/svg">
<g clip-path="url(#clip0_1_39)">
<path d="M28 31.75H18C15.9291 31.75 14.25 33.4291 14.25 35.5V45.5C14.25 47.5709 15.9291 49.25 18 49.25H28C30.0709 49.25 31.75 47.5709 31.75 45.5V35.5C31.75 33.4291 30.0709 31.75 28 31.75ZM29.25 45.5C29.25 46.1903 28.6903 46.75 28 46.75H18C17.3097 46.75 16.75 46.1903 16.75 45.5V35.5C16.75 34.8097 17.3097 34.25 18 34.25H28C28.6903 34.25 29.25 34.8097 29.25 35.5V45.5Z" fill="#00B4EE"/>
<path d="M28 53H18C15.9291 53 14.25 54.6791 14.25 56.75V66.75C14.25 68.8209 15.9291 70.5 18 70.5H28C30.0709 70.5 31.75 68.8209 31.75 66.75V56.75C31.75 54.6791 30.0709 53 28 53ZM29.25 66.75C29.25 67.4403 28.6903 68 28 68H18C17.3097 68 16.75 67.4403 16.75 66.75V56.75C16.75 56.0597 17.3097 55.5 18 55.5H28C28.6903 55.5 29.25 56.0597 29.25 56.75V66.75Z" fill="#00B4EE"/>
<path d="M34.25 35.5H39.25V38H34.25V35.5Z" fill="#00B4EE"/>
<path d="M34.25 39.25H36.75V41.75H34.25V39.25Z" fill="#00B4EE"/>
<path d="M38 41.75H51.75V39.25H38V41.75Z" fill="#00B4EE"/>
<path d="M34.25 43V45.5H61.75V43H34.25Z" fill="#00B4EE"/>
<path d="M34.25 46.75H40.5V49.25H34.25V46.75Z" fill="#00B4EE"/>
<path d="M34.25 53V55.5H61.75V53H34.25Z" fill="#00B4EE"/>
<path d="M34.25 56.75H39.25V59.25H34.25V56.75Z" fill="#00B4EE"/>
<path d="M34.25 60.5H36.75V63H34.25V60.5Z" fill="#00B4EE"/>
<path d="M38 63H51.75V60.5H38V63Z" fill="#00B4EE"/>
<path d="M34.25 64.25V66.75H61.75V64.25H34.25Z" fill="#00B4EE"/>
<path d="M34.25 68H40.5V70.5H34.25V68Z" fill="#00B4EE"/>
<path d="M41.75 68V70.5H55.5V68H41.75Z" fill="#00B4EE"/>
<path d="M49.25 31.75H61.75V34.25H49.25V31.75Z" fill="#00B4EE"/>
<path d="M54.25 38V35.5H40.5V38H54.25Z" fill="#00B4EE"/>
<path d="M55.5 35.5H61.75V38H55.5V35.5Z" fill="#00B4EE"/>
<path d="M53 39.25H61.75V41.75H53V39.25Z" fill="#00B4EE"/>
<path d="M55.5 49.25V46.75H41.75V49.25H55.5Z" fill="#00B4EE"/>
<path d="M56.75 46.75H61.75V49.25H56.75V46.75Z" fill="#00B4EE"/>
<path d="M54.25 59.25V56.75H40.5V59.25H54.25Z" fill="#00B4EE"/>
<path d="M55.5 56.75H61.75V59.25H55.5V56.75Z" fill="#00B4EE"/>
<path d="M53 60.5H61.75V63H53V60.5Z" fill="#00B4EE"/>
<path d="M56.75 68H61.75V70.5H56.75V68Z" fill="#00B4EE"/>
<path d="M38 24.25C42.1418 24.25 45.5 20.8918 45.5 16.75C45.5 12.6082 42.1418 9.25 38 9.25C33.8582 9.25 30.5 12.6082 30.5 16.75C30.5043 20.8906 33.8594 24.2457 38 24.25ZM38 11.75C40.7612 11.75 43 13.9888 43 16.75C43 19.5112 40.7612 21.75 38 21.75C35.2388 21.75 33 19.5112 33 16.75C33 13.9888 35.2388 11.75 38 11.75Z" fill="#00B4EE"/>
<path d="M74.0437 7.54773L72.9597 7.41101L73.6311 6.54858C74.1438 5.88452 74.0846 4.94275 73.4938 4.34766L71.6536 2.51111C71.0585 1.91663 70.1136 1.85864 69.4502 2.375L68.5878 3.04639L68.4523 1.96362C68.3491 1.12866 67.6405 0.501221 66.7988 0.5H64.2012C63.3607 0.50061 62.6521 1.12622 62.5477 1.95996L62.4122 3.04517L61.5498 2.375C60.8864 1.85864 59.9421 1.91724 59.3477 2.51111L57.5087 4.34888C56.9185 4.94519 56.8617 5.88635 57.375 6.54981L58.0452 7.41101L56.9575 7.54773C56.1256 7.65454 55.5018 8.36255 55.5 9.20117V11.7988C55.5018 12.6387 56.1268 13.3461 56.96 13.4523L58.0439 13.589L57.3726 14.4514C56.8599 15.1155 56.9191 16.0573 57.5099 16.6523L59.3464 18.4889C59.9415 19.0828 60.8857 19.142 61.5498 18.6262L62.4122 17.9548L62.5477 19.0376C62.6515 19.872 63.3601 20.4988 64.2012 20.5H66.7988C67.6393 20.4994 68.3479 19.8738 68.4523 19.04L68.5878 17.9548L69.4502 18.6262C70.1136 19.1432 71.0579 19.0846 71.6523 18.4901L73.4913 16.6511C74.0815 16.0548 74.1383 15.1136 73.625 14.4502L72.9548 13.589L74.0425 13.4523C74.8744 13.3455 75.4982 12.6375 75.5 11.7988V9.20117C75.4982 8.36255 74.875 7.65515 74.0437 7.54773ZM73 11.064L71.2501 11.2813C70.7753 11.3405 70.3761 11.6652 70.2211 12.1174C70.1533 12.3158 70.0728 12.5105 69.98 12.6985C69.7694 13.1276 69.8219 13.639 70.1149 14.0162L71.1976 15.4048L70.3999 16.2025L69.0162 15.1252C68.6378 14.8304 68.1239 14.7786 67.6936 14.991C67.5074 15.0837 67.3146 15.1643 67.1174 15.2314C66.6652 15.3859 66.3405 15.785 66.2812 16.2599L66.0627 18H64.9373L64.7188 16.2501C64.6595 15.7753 64.3348 15.3761 63.8826 15.2211C63.6854 15.1539 63.4926 15.074 63.3064 14.9812C62.8767 14.7688 62.3634 14.8207 61.985 15.1149L60.5952 16.1976L59.7975 15.3999L60.8802 14.0114C61.1732 13.6342 61.2257 13.1227 61.0151 12.6936C60.9224 12.505 60.8418 12.3109 60.774 12.1125C60.619 11.6597 60.2198 11.335 59.745 11.2764L58 11.064V9.93848L59.7499 9.72119C60.2247 9.66199 60.6239 9.33789 60.7789 8.88501C60.8467 8.68665 60.9272 8.49255 61.02 8.30396C61.2281 7.87244 61.172 7.36035 60.8748 6.98499L59.7926 5.59522L60.5897 4.79749L61.9801 5.88025C62.3585 6.17444 62.8718 6.22632 63.3015 6.01392C63.4877 5.92114 63.6805 5.84058 63.8777 5.77405C64.33 5.61902 64.6547 5.21985 64.7139 4.745L64.9373 3H66.0627L66.2812 4.74988C66.3405 5.22473 66.6652 5.6239 67.1174 5.77893C67.3146 5.84607 67.5074 5.92603 67.6936 6.0188C68.1257 6.22876 68.6396 6.17322 69.0162 5.87476L70.4048 4.7926L71.2025 5.58972L70.1252 6.98499C69.8323 7.36218 69.7798 7.87244 69.9897 8.30151C70.0825 8.4895 70.1631 8.68421 70.2314 8.88257C70.3859 9.33484 70.785 9.65955 71.2599 9.71875L73.0098 9.93604L73 11.064Z" fill="#00B4EE"/>
<path d="M65.5 6.75C63.4291 6.75 61.75 8.42908 61.75 10.5C61.75 12.5709 63.4291 14.25 65.5 14.25C67.5709 14.25 69.25 12.5709 69.25 10.5C69.25 8.42908 67.5709 6.75 65.5 6.75ZM65.5 11.75C64.8097 11.75 64.25 11.1903 64.25 10.5C64.25 9.80969 64.8097 9.25 65.5 9.25C66.1903 9.25 66.75 9.80969 66.75 10.5C66.75 11.1903 66.1903 11.75 65.5 11.75Z" fill="#00B4EE"/>
<path d="M9.20117 20.5H11.7988C12.6393 20.4994 13.3479 19.8738 13.4523 19.04L13.5878 17.9548L14.4502 18.6262C15.1136 19.1432 16.0579 19.0846 16.6523 18.4901L18.4913 16.6511C19.0815 16.0548 19.1383 15.1136 18.625 14.4502L17.9548 13.589L19.0425 13.4523C19.8744 13.3455 20.4982 12.6375 20.5 11.7988V9.20117C20.4982 8.36133 19.8732 7.65393 19.04 7.54773L17.9561 7.41101L18.6274 6.54858C19.1401 5.88452 19.0809 4.94275 18.4901 4.34766L16.6536 2.51111C16.0597 1.9148 15.1143 1.8562 14.4514 2.37378L13.5878 3.04517L13.4523 1.9624C13.3485 1.12805 12.6399 0.501221 11.7988 0.5H9.20117C8.36072 0.50061 7.6521 1.12622 7.54773 1.95996L7.41223 3.04517L6.54981 2.375C5.88635 1.85864 4.94214 1.91724 4.34766 2.51111L2.50867 4.34888C1.91846 4.94519 1.86169 5.88635 2.375 6.54981L3.04517 7.41101L1.96118 7.54773C1.12744 7.65332 0.502441 8.36133 0.5 9.20117V11.7988C0.501831 12.6387 1.12683 13.3461 1.95996 13.4523L3.04395 13.589L2.37256 14.4514C1.85986 15.1155 1.91907 16.0573 2.50989 16.6523L4.34644 18.4889C4.94031 19.084 5.88513 19.1426 6.54858 18.6262L7.41223 17.9548L7.54773 19.0376C7.65149 19.872 8.36011 20.4988 9.20117 20.5ZM6.98499 15.1252L5.59522 16.2074L4.79749 15.4103L5.87476 14.0162C6.16834 13.639 6.22022 13.1276 6.01025 12.6985C5.91748 12.5105 5.83691 12.3158 5.76856 12.1174C5.61414 11.6652 5.21497 11.3405 4.74011 11.2813L3 11.064V9.93848L4.74988 9.72119C5.22473 9.66199 5.6239 9.33789 5.77893 8.88501C5.84668 8.68665 5.92725 8.49255 6.02002 8.30396C6.22815 7.87244 6.172 7.36035 5.87476 6.98499L4.79749 5.59522L5.59522 4.79749L6.98499 5.87476C7.3634 6.16895 7.87671 6.22144 8.3064 6.00903C8.49255 5.91626 8.68543 5.83569 8.88257 5.76856C9.3324 5.61536 9.6565 5.22107 9.71875 4.74988L9.93726 3H11.0627L11.2813 4.74988C11.3405 5.22473 11.6652 5.6239 12.1174 5.77893C12.3146 5.84607 12.5074 5.92603 12.6936 6.0188C13.1257 6.22876 13.6396 6.17322 14.0162 5.87476L15.4048 4.7926L16.2025 5.58972L15.1252 6.98499C14.8323 7.36218 14.7798 7.87244 14.9897 8.30151C15.0825 8.4895 15.1631 8.68421 15.2314 8.88257C15.3859 9.33484 15.785 9.65955 16.2599 9.71875L18.0098 9.93604V11.0615L16.2599 11.2788C15.785 11.338 15.3859 11.6621 15.2314 12.115C15.1631 12.3134 15.0825 12.5074 14.9897 12.696C14.7798 13.1251 14.8317 13.6366 15.1252 14.0138L16.2074 15.4023L15.4103 16.2001L14.0162 15.1252C13.6378 14.8304 13.1239 14.7786 12.6936 14.991C12.5074 15.0837 12.3146 15.1643 12.1174 15.2314C11.6652 15.3859 11.3405 15.785 11.2813 16.2599L11.0627 18H9.93726L9.71875 16.2501C9.65955 15.7753 9.33484 15.3761 8.88257 15.2211C8.68543 15.1539 8.49255 15.074 8.3064 14.9812C7.87488 14.7719 7.36157 14.8274 6.98499 15.1252Z" fill="#00B4EE"/>
<path d="M14.25 10.5C14.25 8.42908 12.5709 6.75 10.5 6.75C8.42908 6.75 6.75 8.42908 6.75 10.5C6.75 12.5709 8.42908 14.25 10.5 14.25C12.5709 14.25 14.25 12.5709 14.25 10.5ZM9.25 10.5C9.25 9.80969 9.80969 9.25 10.5 9.25C11.1903 9.25 11.75 9.80969 11.75 10.5C11.75 11.1903 11.1903 11.75 10.5 11.75C9.80969 11.75 9.25 11.1903 9.25 10.5Z" fill="#00B4EE"/>
<path d="M66.75 21.75H49.4215L49.1127 21.3539L52.5312 20.926C53.5127 20.8003 54.2482 19.9653 54.25 18.976V14.524C54.2482 13.5347 53.5127 12.6997 52.5312 12.574L49.1139 12.1461L51.2288 9.42883C51.8342 8.64575 51.7646 7.53491 51.0664 6.83362L47.9164 3.68359C47.2145 2.98535 46.103 2.91638 45.3212 3.52368L42.6027 5.63733L42.1748 2.22119C42.0515 1.23853 41.2166 0.501221 40.226 0.5H35.774C34.7834 0.501221 33.9485 1.23853 33.8252 2.22119L33.3973 5.63733L30.6788 3.52246C29.8951 2.91882 28.7861 2.9884 28.0836 3.68481L24.9348 6.83362C24.2366 7.53552 24.167 8.64697 24.7737 9.43005L26.8873 12.1461L23.4688 12.574C22.4873 12.6997 21.7518 13.5347 21.75 14.524V18.976C21.7518 19.9659 22.4879 20.8009 23.47 20.926L26.8873 21.3539L26.5785 21.75H9.25C8.55969 21.75 8 22.3097 8 23V71.75C8 73.8209 9.67908 75.5 11.75 75.5H64.25C66.3209 75.5 68 73.8209 68 71.75V23C68 22.3097 67.4403 21.75 66.75 21.75ZM65.5 25.5H51.6102C51.6578 25.0624 51.5553 24.6217 51.3185 24.25H65.5V25.5ZM24.25 18.4999V15.0001L28.025 14.5289C28.4993 14.4691 28.8978 14.145 29.0522 13.6927C29.181 13.3168 29.3342 12.95 29.51 12.5935C29.7206 12.1644 29.6675 11.6523 29.3739 11.2751L27.0375 8.27527L29.5173 5.79358L32.5172 8.13245C32.8956 8.42664 33.4077 8.47913 33.8374 8.26733C34.1926 8.09094 34.5588 7.93835 34.9336 7.81018C35.3859 7.65576 35.7106 7.25659 35.7698 6.78235L36.2501 3H39.7499L40.2211 6.77502C40.2809 7.24927 40.605 7.64783 41.0573 7.80225C41.4326 7.93103 41.7988 8.08362 42.1541 8.26001C42.5844 8.47302 43.0989 8.42053 43.4773 8.12512L46.4778 5.78625L48.9625 8.26733L46.6261 11.2672C46.3325 11.645 46.2794 12.1571 46.49 12.5862C46.6658 12.942 46.819 13.3094 46.9478 13.6848C47.1022 14.1371 47.5007 14.4618 47.975 14.521L51.75 15.0001V18.4999L47.975 18.9711C47.5007 19.0309 47.1022 19.355 46.9478 19.8073C46.819 20.1832 46.6658 20.55 46.49 20.9065C46.2794 21.3356 46.3325 21.8477 46.6261 22.2249L48.9625 25.2247L46.4827 27.7064L43.4828 25.3676C43.1044 25.0734 42.5923 25.0209 42.1626 25.2327C41.8074 25.4091 41.4412 25.5616 41.0664 25.6898C40.6141 25.8442 40.2894 26.2434 40.2302 26.7177L39.7499 30.5H36.2501L35.7789 26.725C35.7191 26.2507 35.395 25.8522 34.9427 25.6978C34.5674 25.569 34.2012 25.4164 33.8459 25.24C33.4169 25.0282 32.9042 25.0807 32.5264 25.3749L29.5265 27.7137L27.0375 25.2327L29.3739 22.2328C29.6675 21.855 29.7206 21.3429 29.51 20.9138C29.3342 20.558 29.181 20.1906 29.0522 19.8152C28.8978 19.3629 28.4993 19.0382 28.025 18.979L24.25 18.4999ZM24.6815 24.25C24.4447 24.6217 24.3422 25.0624 24.3898 25.5H10.5V24.25H24.6815ZM65.5 71.75C65.5 72.4403 64.9403 73 64.25 73H11.75C11.0597 73 10.5 72.4403 10.5 71.75V28H26.2703L28.0848 29.8164C28.7867 30.5146 29.8982 30.5836 30.6801 29.9763L33.3973 27.8627L33.8252 31.2788C33.9485 32.2615 34.7834 32.9988 35.774 33H40.226C41.2166 32.9988 42.0515 32.2615 42.1748 31.2788L42.6027 27.8627L45.3212 29.9775C46.1042 30.5836 47.2151 30.514 47.9164 29.8152L49.7297 28H65.5V71.75Z" fill="#00B4EE"/>
<path d="M0.5 25.5V70.5C0.5 71.1903 1.05969 71.75 1.75 71.75H5.5V69.25H3V26.75H5.5V24.25H1.75C1.05969 24.25 0.5 24.8097 0.5 25.5Z" fill="#00B4EE"/>
<path d="M74.25 24.25H70.5V26.75H73V69.25H70.5V71.75H74.25C74.9403 71.75 75.5 71.1903 75.5 70.5V25.5C75.5 24.8097 74.9403 24.25 74.25 24.25Z" fill="#00B4EE"/>
</g>
<defs>
<clipPath id="clip0_1_39">
<rect width="75" height="75" fill="white" transform="translate(0.5 0.5)"/>
</clipPath>
</defs>
</svg>
